<svg id="Layer_1" data-name="Layer 1" xmlns="http://www.w3.org/2000/svg" viewBox="0 0 548.05 36.02"><defs><style>.cls-1{fill:#6ccbdd;opacity:0.75;}.cls-2{fill:#fff;}</style></defs><title>nspires-logo</title><path class="cls-1" d="M109.26,20.58c5.82-2.8,13.36-5.61,18.17-5.11,5.09.52,1.83,6.27-1.37,10.21,0,0-9,11.76-27.2,23.52.39-.25.93-.44,1.34-.65,1.31-.67,2.61-1.41,3.88-2.19a109.77,109.77,0,0,0,13.66-10,96.5,96.5,0,0,0,10.55-10.21c2.39-2.75,4.81-6,5.38-8.76a3.24,3.24,0,0,0-1.06-3.33c-2.75-2-9.32-.32-14.43,1.88A47.94,47.94,0,0,0,109.26,20.58Z" transform="translate(-21.95 -13.18)"/><path class="cls-2" d="M142.21,39.14l2.47-10.7h2.1l1.61,9.48h.3l2.18-9.48H152l-2.48,10.7h-2l-1.68-9.54h-.3l-2.22,9.54Z" transform="translate(-21.95 -13.18)"/><path class="cls-2" d="M151.13,39.14l5.33-10.7h2.31l.21,10.7h-1.17l-.09-2.74h-4l-1.38,2.74Zm6-9.65-2.95,5.88h3.52l-.11-5.88Z" transform="translate(-21.95 -13.18)"/><path class="cls-2" d="M168.11,29.6a16.66,16.66,0,0,0-2.77-.28,2.61,2.61,0,0,0-1.79.58,2.14,2.14,0,0,0-.65,1.68,1,1,0,0,0,.38.89,6.92,6.92,0,0,0,1.57.71,4.27,4.27,0,0,1,1.67.92,2.08,2.08,0,0,1,.47,1.5,3.55,3.55,0,0,1-1,2.71,3.89,3.89,0,0,1-2.8,1A11.63,11.63,0,0,1,160.5,39l-.45-.09.2-.93a19.61,19.61,0,0,0,3,.28,2.55,2.55,0,0,0,1.86-.66,2.47,2.47,0,0,0,.67-1.87,1.18,1.18,0,0,0-.34-.94,4.75,4.75,0,0,0-1.5-.7,5,5,0,0,1-1.7-.9,1.94,1.94,0,0,1-.54-1.5,3.17,3.17,0,0,1,1-2.48,3.93,3.93,0,0,1,2.73-.91,9.38,9.38,0,0,1,2.48.33l.4.11Z" transform="translate(-21.95 -13.18)"/><path class="cls-2" d="M167.16,39.14l5.34-10.7h2.3l.22,10.7h-1.18l-.09-2.74h-4l-1.38,2.74Zm6-9.65-3,5.88h3.53l-.11-5.88Z" transform="translate(-21.95 -13.18)"/><path class="cls-2" d="M187.68,29.6a16.46,16.46,0,0,0-2.76-.28,2.59,2.59,0,0,0-1.79.58,2.11,2.11,0,0,0-.66,1.68,1,1,0,0,0,.38.89,7.07,7.07,0,0,0,1.58.71,4.27,4.27,0,0,1,1.67.92,2.12,2.12,0,0,1,.47,1.5,3.55,3.55,0,0,1-1,2.71,3.9,3.9,0,0,1-2.8,1,11.56,11.56,0,0,1-2.66-.31l-.45-.09.2-.93a19.49,19.49,0,0,0,3,.28,2.56,2.56,0,0,0,1.87-.66,2.47,2.47,0,0,0,.67-1.87,1.18,1.18,0,0,0-.34-.94,5,5,0,0,0-1.5-.7,5,5,0,0,1-1.7-.9,1.94,1.94,0,0,1-.54-1.5,3.13,3.13,0,0,1,1-2.48,3.93,3.93,0,0,1,2.73-.91,9.31,9.31,0,0,1,2.47.33l.41.11Z" transform="translate(-21.95 -13.18)"/><path class="cls-2" d="M191.78,31.25a2.35,2.35,0,0,1,2.68,2.63,7.4,7.4,0,0,1-.46,2.66,4.59,4.59,0,0,1-1.37,2,3.18,3.18,0,0,1-2.1.76c-1.76,0-2.64-.84-2.64-2.53a6.72,6.72,0,0,1,1.1-3.87A3.29,3.29,0,0,1,191.78,31.25Zm-1.25,7a2.28,2.28,0,0,0,2-1.31,6.05,6.05,0,0,0,.77-3.11,1.74,1.74,0,0,0-.38-1.18,1.42,1.42,0,0,0-1.14-.43,2.25,2.25,0,0,0-2,1.35,6.32,6.32,0,0,0-.76,3.16A1.33,1.33,0,0,0,190.53,38.29Z" transform="translate(-21.95 -13.18)"/><path class="cls-2" d="M195.2,39.14,197.77,28h1.14l-2.55,11.1Z" transform="translate(-21.95 -13.18)"/><path class="cls-2" d="M198.46,39.14l1.78-7.73h1.16l-1.79,7.73Zm2.14-9.34.34-1.39h1.16l-.33,1.39Z" transform="translate(-21.95 -13.18)"/><path class="cls-2" d="M206.12,31.25a7.08,7.08,0,0,1,1.65.22l.28.08-.29.89a9.84,9.84,0,0,0-1.67-.18,2.15,2.15,0,0,0-1.6.68,5.17,5.17,0,0,0-1.25,3.79,1.62,1.62,0,0,0,.37,1.16,1.6,1.6,0,0,0,1.22.4,7.43,7.43,0,0,0,1.43-.17l.31-.06-.08.91a7.21,7.21,0,0,1-2.14.32,2.28,2.28,0,0,1-1.69-.61,2.32,2.32,0,0,1-.61-1.74,6.15,6.15,0,0,1,1.79-4.87A3.39,3.39,0,0,1,206.12,31.25Z" transform="translate(-21.95 -13.18)"/><path class="cls-2" d="M207.91,39.14l1.78-7.73h1.16l-1.79,7.73ZM210,29.8l.34-1.39h1.16l-.32,1.39Z" transform="translate(-21.95 -13.18)"/><path class="cls-2" d="M213,37.58c0,.47.26.71.77.71L215,38.2l-.07.88a6.12,6.12,0,0,1-1.54.21,1.65,1.65,0,0,1-1.14-.38,1.36,1.36,0,0,1-.42-1,7.36,7.36,0,0,1,.25-1.64l.9-3.82h-1l.26-1h1l.55-2.29h1.16l-.56,2.29h2.16l-.24,1h-2.17l-.9,3.88A5.66,5.66,0,0,0,213,37.58Z" transform="translate(-21.95 -13.18)"/><path class="cls-2" d="M218.35,39.29c-1.32,0-2-.76-2-2.3a8.4,8.4,0,0,1,.41-2.56,5.6,5.6,0,0,1,1.34-2.23,2.92,2.92,0,0,1,2.15-1,15.84,15.84,0,0,1,2.58.28l.59.11-1.18,5a18.78,18.78,0,0,0-.37,2.05l-.06.4-1.13,0c.14-.88.24-1.43.28-1.65a3.83,3.83,0,0,1-.46.53,7.45,7.45,0,0,1-.67.64,3.43,3.43,0,0,1-.71.43A1.86,1.86,0,0,1,218.35,39.29Zm3.74-6.82a10,10,0,0,0-1.86-.21,1.84,1.84,0,0,0-1.43.79,5,5,0,0,0-1,1.86,7.44,7.44,0,0,0-.29,1.89,1.92,1.92,0,0,0,.26,1.16,1,1,0,0,0,.79.33,1.91,1.91,0,0,0,1.15-.5,7.32,7.32,0,0,0,1.05-1l.4-.51Z" transform="translate(-21.95 -13.18)"/><path class="cls-2" d="M225.68,37.58c0,.47.26.71.77.71l1.19-.09-.07.88a6.12,6.12,0,0,1-1.54.21,1.65,1.65,0,0,1-1.14-.38,1.36,1.36,0,0,1-.42-1,6.81,6.81,0,0,1,.25-1.64l.9-3.82h-1l.26-1h1l.55-2.29h1.16L227,31.41h2.16l-.24,1h-2.17l-.9,3.88A5.66,5.66,0,0,0,225.68,37.58Z" transform="translate(-21.95 -13.18)"/><path class="cls-2" d="M228.66,39.14l1.78-7.73h1.16l-1.79,7.73Zm2.14-9.34.34-1.39h1.16L232,29.8Z" transform="translate(-21.95 -13.18)"/><path class="cls-2" d="M236.13,31.25a2.35,2.35,0,0,1,2.68,2.63,7.4,7.4,0,0,1-.46,2.66,4.59,4.59,0,0,1-1.37,2,3.18,3.18,0,0,1-2.1.76c-1.76,0-2.64-.84-2.64-2.53a6.72,6.72,0,0,1,1.1-3.87A3.29,3.29,0,0,1,236.13,31.25Zm-1.25,7a2.28,2.28,0,0,0,2-1.31,6.05,6.05,0,0,0,.77-3.11,1.74,1.74,0,0,0-.38-1.18,1.42,1.42,0,0,0-1.14-.43,2.25,2.25,0,0,0-2,1.35,6.32,6.32,0,0,0-.76,3.16A1.33,1.33,0,0,0,234.88,38.29Z" transform="translate(-21.95 -13.18)"/><path class="cls-2" d="M244.61,31.25a1.73,1.73,0,0,1,1.36.53,2,2,0,0,1,.46,1.36,8.57,8.57,0,0,1-.31,2.07l-.91,3.93h-1.15l.9-3.85a8,8,0,0,0,.3-1.86c0-.77-.36-1.16-1.06-1.16a1.9,1.9,0,0,0-1.06.44,5.49,5.49,0,0,0-1,.86l-.36.43-1.19,5.14h-1.14l1.78-7.73h1.12l-.27,1.34.36-.42a5,5,0,0,1,.88-.66A2.33,2.33,0,0,1,244.61,31.25Z" transform="translate(-21.95 -13.18)"/><path class="cls-2" d="M258.54,30c1.24,0,1.87.54,1.87,1.61a2.38,2.38,0,0,1-.62,1.67,5.18,5.18,0,0,1-2,1.19l1.45,2a6.89,6.89,0,0,0,.77-1.76H261a8.22,8.22,0,0,1-1.17,2.44l1.22,1.55-.68.6-1.15-1.48a3.85,3.85,0,0,1-3,1.52,2.79,2.79,0,0,1-1.89-.53,2.18,2.18,0,0,1-.58-1.69,3,3,0,0,1,.63-1.94,4.69,4.69,0,0,1,2.07-1.32,2.75,2.75,0,0,1-.36-1.3,2.56,2.56,0,0,1,.67-1.87A2.46,2.46,0,0,1,258.54,30Zm-2.2,8.46a2.66,2.66,0,0,0,1.29-.35,3.29,3.29,0,0,0,1.08-1l-1.91-2.67a3.41,3.41,0,0,0-1.6,1.06,2.6,2.6,0,0,0-.46,1.59C254.74,38,255.27,38.41,256.34,38.41Zm1.1-7.14a1.94,1.94,0,0,0-.37,1.23,2.29,2.29,0,0,0,.38,1.31,3.88,3.88,0,0,0,1.51-1,1.83,1.83,0,0,0,.44-1.24c0-.55-.3-.83-.9-.83A1.24,1.24,0,0,0,257.44,31.27Z" transform="translate(-21.95 -13.18)"/><path class="cls-2" d="M273.17,35.55h-2.33L270,39.14h-1.17l2.47-10.7h3.37a2.8,2.8,0,0,1,2,.62,2.6,2.6,0,0,1,.64,1.91,4.94,4.94,0,0,1-1.09,3.32A3.84,3.84,0,0,1,273.17,35.55Zm.19-1a2.34,2.34,0,0,0,2-1,4.31,4.31,0,0,0,.7-2.52,1.56,1.56,0,0,0-.36-1.13,1.62,1.62,0,0,0-1.19-.37h-2.3l-1.15,5Z" transform="translate(-21.95 -13.18)"/><path class="cls-2" d="M277.1,39.14l1.79-7.73H280l-.28,1.14a7.28,7.28,0,0,1,2.8-1.31l-.31,1.19a11.18,11.18,0,0,0-2.24.93l-.47.23-1.28,5.55Z" transform="translate(-21.95 -13.18)"/><path class="cls-2" d="M286.07,31.25a2.34,2.34,0,0,1,2.67,2.63,7.62,7.62,0,0,1-.45,2.66,4.68,4.68,0,0,1-1.37,2,3.18,3.18,0,0,1-2.1.76c-1.77,0-2.65-.84-2.65-2.53a6.72,6.72,0,0,1,1.11-3.87A3.26,3.26,0,0,1,286.07,31.25Zm-1.25,7a2.28,2.28,0,0,0,2-1.31,6,6,0,0,0,.76-3.11,1.69,1.69,0,0,0-.38-1.18,1.41,1.41,0,0,0-1.13-.43,2.24,2.24,0,0,0-2,1.35,6.32,6.32,0,0,0-.77,3.16A1.33,1.33,0,0,0,284.82,38.29Z" transform="translate(-21.95 -13.18)"/><path class="cls-2" d="M294.53,31.25q2,0,2,2.28a7.68,7.68,0,0,1-1,3.81,4.08,4.08,0,0,1-1.22,1.41,2.81,2.81,0,0,1-1.66.54,7.43,7.43,0,0,1-1.76-.21L290.6,39l-.82,3.57h-1.15l2.57-11.16h1.13L292,32.78c.09-.11.21-.25.37-.42a4.55,4.55,0,0,1,.89-.68A2.26,2.26,0,0,1,294.53,31.25Zm-.33,1a1.91,1.91,0,0,0-1.05.45,5.68,5.68,0,0,0-1,.92l-.41.45-.93,4a8.64,8.64,0,0,0,1.85.23,1.87,1.87,0,0,0,1.47-.82,5.21,5.21,0,0,0,.93-1.87,7.77,7.77,0,0,0,.29-2C295.35,32.7,295,32.26,294.2,32.26Z" transform="translate(-21.95 -13.18)"/><path class="cls-2" d="M301.42,31.25a2.35,2.35,0,0,1,2.68,2.63,7.4,7.4,0,0,1-.46,2.66,4.59,4.59,0,0,1-1.37,2,3.16,3.16,0,0,1-2.1.76c-1.76,0-2.64-.84-2.64-2.53a6.79,6.79,0,0,1,1.1-3.87A3.29,3.29,0,0,1,301.42,31.25Zm-1.25,7a2.27,2.27,0,0,0,2-1.31,6.05,6.05,0,0,0,.77-3.11,1.74,1.74,0,0,0-.38-1.18,1.42,1.42,0,0,0-1.14-.43,2.25,2.25,0,0,0-2,1.35,6.32,6.32,0,0,0-.76,3.16A1.33,1.33,0,0,0,300.17,38.29Z" transform="translate(-21.95 -13.18)"/><path class="cls-2" d="M311,32.47a17.57,17.57,0,0,0-2.36-.21,1.91,1.91,0,0,0-1.37.44,1.37,1.37,0,0,0-.48,1.06.61.61,0,0,0,.28.55,4.58,4.58,0,0,0,1.29.45,5,5,0,0,1,1.49.6,1.26,1.26,0,0,1,.48,1.12,2.48,2.48,0,0,1-.94,2.09,3.9,3.9,0,0,1-2.43.72A8.3,8.3,0,0,1,304.9,39l-.35-.07.21-.9a13.84,13.84,0,0,0,2.36.25,2.53,2.53,0,0,0,1.49-.4,1.37,1.37,0,0,0,.56-1.18.66.66,0,0,0-.29-.61,5.4,5.4,0,0,0-1.28-.42,4.36,4.36,0,0,1-1.46-.58,1.2,1.2,0,0,1-.48-1.06,2.55,2.55,0,0,1,.87-2,3.12,3.12,0,0,1,2.18-.78,9.13,9.13,0,0,1,2.19.25l.36.08Z" transform="translate(-21.95 -13.18)"/><path class="cls-2" d="M313.75,39.29c-1.32,0-2-.76-2-2.3a8.11,8.11,0,0,1,.41-2.56,5.6,5.6,0,0,1,1.34-2.23,2.91,2.91,0,0,1,2.15-1,16.06,16.06,0,0,1,2.58.28l.58.11-1.17,5a16.65,16.65,0,0,0-.37,2.05l-.06.4-1.13,0c.14-.88.23-1.43.28-1.65a4.75,4.75,0,0,1-.46.53,7.45,7.45,0,0,1-.67.64,3.71,3.71,0,0,1-.71.43A1.86,1.86,0,0,1,313.75,39.29Zm3.74-6.82a10,10,0,0,0-1.86-.21,1.84,1.84,0,0,0-1.43.79,5,5,0,0,0-.95,1.86A7.44,7.44,0,0,0,313,36.8a1.92,1.92,0,0,0,.26,1.16,1,1,0,0,0,.79.33,1.91,1.91,0,0,0,1.15-.5,7.32,7.32,0,0,0,1-1l.4-.51Z" transform="translate(-21.95 -13.18)"/><path class="cls-2" d="M319.21,39.14,321.77,28h1.15l-2.55,11.1Z" transform="translate(-21.95 -13.18)"/><path class="cls-2" d="M326.05,39.14l2.48-10.7h1.17l-2.47,10.7Z" transform="translate(-21.95 -13.18)"/><path class="cls-2" d="M334.58,31.25a1.73,1.73,0,0,1,1.36.53,2,2,0,0,1,.46,1.36,8.57,8.57,0,0,1-.31,2.07l-.91,3.93H334l.9-3.85a8,8,0,0,0,.3-1.86c0-.77-.35-1.16-1.06-1.16a1.9,1.9,0,0,0-1.06.44,5.49,5.49,0,0,0-1,.86l-.36.43-1.19,5.14h-1.14l1.78-7.73h1.12l-.27,1.34.36-.42a5,5,0,0,1,.88-.66A2.33,2.33,0,0,1,334.58,31.25Z" transform="translate(-21.95 -13.18)"/><path class="cls-2" d="M339,37.58c0,.47.26.71.77.71L341,38.2l-.07.88a6.11,6.11,0,0,1-1.53.21,1.66,1.66,0,0,1-1.15-.38,1.36,1.36,0,0,1-.42-1,7.36,7.36,0,0,1,.25-1.64l.9-3.82h-1l.26-1h1l.55-2.29h1.16l-.56,2.29h2.16l-.24,1h-2.17l-.9,3.88A5.66,5.66,0,0,0,339,37.58Z" transform="translate(-21.95 -13.18)"/><path class="cls-2" d="M343.56,36.88a1.31,1.31,0,0,0,.4,1,1.44,1.44,0,0,0,1,.36,11.14,11.14,0,0,0,2.26-.24l.39-.1-.1.91a8.46,8.46,0,0,1-2.64.45c-1.64,0-2.46-.78-2.46-2.35a7.5,7.5,0,0,1,1-3.83,3.79,3.79,0,0,1,1.32-1.35,3.47,3.47,0,0,1,1.86-.51c1.53,0,2.29.63,2.29,1.89a2,2,0,0,1-1,1.92,7.33,7.33,0,0,1-3.29.55h-.79A4.81,4.81,0,0,0,343.56,36.88Zm1.18-2.18a5.7,5.7,0,0,0,2.27-.33,1.23,1.23,0,0,0,.69-1.22c0-.61-.39-.92-1.19-.92-1.26,0-2.14.82-2.63,2.47Z" transform="translate(-21.95 -13.18)"/><path class="cls-2" d="M351.18,42.77a3.43,3.43,0,0,1-2-.53,1.72,1.72,0,0,1-.74-1.49q0-1.32,2-2.37a.81.81,0,0,1-.25-.61,1.37,1.37,0,0,1,.22-.73,2.43,2.43,0,0,1,.43-.59l.2-.23A1.8,1.8,0,0,1,350,34.44a3.29,3.29,0,0,1,.85-2.24,2.9,2.9,0,0,1,2.26-1,3.91,3.91,0,0,1,1.28.19l.21.06,2.29-.09-.24,1h-1.37a2.06,2.06,0,0,1,.26,1.06,3,3,0,0,1-.87,2.11,3.1,3.1,0,0,1-2.39.94l-.51,0a1.87,1.87,0,0,0-.48.95.45.45,0,0,0,.29.44,7.34,7.34,0,0,0,1.33.24,3.34,3.34,0,0,1,1.59.55,1.47,1.47,0,0,1,.56,1.27,2.5,2.5,0,0,1-1.06,2A4.45,4.45,0,0,1,351.18,42.77ZM350,39.56a1.4,1.4,0,0,0-.47,1,1.1,1.1,0,0,0,.44.88,2.28,2.28,0,0,0,1.41.35,3.31,3.31,0,0,0,1.77-.48,1.45,1.45,0,0,0,.79-1.3.71.71,0,0,0-.33-.66,3.43,3.43,0,0,0-1.23-.31,6.18,6.18,0,0,1-1.3-.25A4.26,4.26,0,0,0,350,39.56Zm2.4-4a1.85,1.85,0,0,0,1.51-.66,2.07,2.07,0,0,0,.54-1.33,1.41,1.41,0,0,0-.32-1,1.59,1.59,0,0,0-1.14-.32,1.66,1.66,0,0,0-1.34.65,2.22,2.22,0,0,0-.54,1.43C351.09,35.14,351.52,35.55,352.38,35.55Z" transform="translate(-21.95 -13.18)"/><path class="cls-2" d="M356.4,39.14l1.79-7.73h1.14l-.27,1.14a7.24,7.24,0,0,1,2.79-1.31l-.31,1.19a11.68,11.68,0,0,0-2.24.93l-.46.23-1.28,5.55Z" transform="translate(-21.95 -13.18)"/><path class="cls-2" d="M363.42,39.29c-1.32,0-2-.76-2-2.3a8.11,8.11,0,0,1,.41-2.56,5.7,5.7,0,0,1,1.33-2.23,2.94,2.94,0,0,1,2.15-1,16.05,16.05,0,0,1,2.59.28l.58.11-1.17,5a16.65,16.65,0,0,0-.37,2.05l-.06.4-1.13,0q.21-1.32.27-1.65a3.51,3.51,0,0,1-.45.53,7.45,7.45,0,0,1-.67.64,3.71,3.71,0,0,1-.71.43A1.89,1.89,0,0,1,363.42,39.29Zm3.74-6.82a10,10,0,0,0-1.87-.21,1.85,1.85,0,0,0-1.43.79,5.11,5.11,0,0,0-.94,1.86,7.44,7.44,0,0,0-.29,1.89,1.85,1.85,0,0,0,.26,1.16,1,1,0,0,0,.79.33,1.93,1.93,0,0,0,1.15-.5,7.32,7.32,0,0,0,1.05-1l.4-.51Z" transform="translate(-21.95 -13.18)"/><path class="cls-2" d="M370.75,37.58c0,.47.25.71.77.71l1.19-.09-.08.88a6,6,0,0,1-1.53.21,1.65,1.65,0,0,1-1.14-.38,1.36,1.36,0,0,1-.42-1,6.81,6.81,0,0,1,.25-1.64l.89-3.82h-1l.27-1h1l.54-2.29h1.16l-.55,2.29h2.16l-.25,1h-2.16l-.9,3.88A5.66,5.66,0,0,0,370.75,37.58Z" transform="translate(-21.95 -13.18)"/><path class="cls-2" d="M375.28,36.88a1.31,1.31,0,0,0,.4,1,1.44,1.44,0,0,0,1,.36,11.22,11.22,0,0,0,2.26-.24l.38-.1-.09.91a8.51,8.51,0,0,1-2.64.45c-1.64,0-2.46-.78-2.46-2.35a7.5,7.5,0,0,1,1-3.83,3.88,3.88,0,0,1,1.32-1.35,3.48,3.48,0,0,1,1.87-.51q2.28,0,2.28,1.89a2,2,0,0,1-1,1.92,7.35,7.35,0,0,1-3.3.55h-.78A4.43,4.43,0,0,0,375.28,36.88Zm1.17-2.18a5.67,5.67,0,0,0,2.27-.33,1.22,1.22,0,0,0,.7-1.22c0-.61-.4-.92-1.19-.92-1.27,0-2.15.82-2.63,2.47Z" transform="translate(-21.95 -13.18)"/><path class="cls-2" d="M383.18,39.29q-1.95,0-1.95-2.25a8.28,8.28,0,0,1,.43-2.66A5.58,5.58,0,0,1,383,32.16a2.9,2.9,0,0,1,2.09-.91,7.66,7.66,0,0,1,1.74.22l.31.06L388,28h1.16l-2.58,11.1h-1.11l.29-1.38a3.17,3.17,0,0,1-.46.5,6.06,6.06,0,0,1-.59.51A2.64,2.64,0,0,1,383.18,39.29Zm3.77-6.8a8,8,0,0,0-1.85-.23,1.84,1.84,0,0,0-1.46.8,5.38,5.38,0,0,0-.93,1.87,8.09,8.09,0,0,0-.29,2.09c0,.85.37,1.27,1.11,1.27a1.93,1.93,0,0,0,1.09-.46,6.22,6.22,0,0,0,1-.92l.38-.45Z" transform="translate(-21.95 -13.18)"/><path class="cls-2" d="M397.93,28.44a3.13,3.13,0,0,1,2.1.6,2.76,2.76,0,0,1,.68,2.13,3.79,3.79,0,0,1-.82,2.51A3.94,3.94,0,0,1,398,35l1.18,4.16H398l-1.1-4h-2.54l-.94,4h-1.18l2.48-10.7Zm1.55,2.61a1.59,1.59,0,0,0-.39-1.22,1.86,1.86,0,0,0-1.28-.36h-2.2l-1.07,4.63h2.28a2.44,2.44,0,0,0,1.93-.85A3.3,3.3,0,0,0,399.48,31.05Z" transform="translate(-21.95 -13.18)"/><path class="cls-2" d="M402.2,36.88a1.31,1.31,0,0,0,.4,1,1.44,1.44,0,0,0,1,.36,11.22,11.22,0,0,0,2.26-.24l.38-.1-.09.91a8.51,8.51,0,0,1-2.64.45c-1.64,0-2.46-.78-2.46-2.35a7.5,7.5,0,0,1,1-3.83,3.88,3.88,0,0,1,1.32-1.35,3.52,3.52,0,0,1,1.87-.51c1.52,0,2.29.63,2.29,1.89a2,2,0,0,1-1,1.92,7.33,7.33,0,0,1-3.29.55h-.79A4.43,4.43,0,0,0,402.2,36.88Zm1.17-2.18a5.76,5.76,0,0,0,2.28-.33,1.23,1.23,0,0,0,.69-1.22c0-.61-.39-.92-1.19-.92-1.27,0-2.14.82-2.63,2.47Z" transform="translate(-21.95 -13.18)"/><path class="cls-2" d="M408.82,31.41H410l.13,6.74h.47l3.36-6.74h1.19l-3.93,7.73H409Z" transform="translate(-21.95 -13.18)"/><path class="cls-2" d="M414.71,39.14l1.78-7.73h1.16l-1.8,7.73Zm2.13-9.34.34-1.39h1.16L418,29.8Z" transform="translate(-21.95 -13.18)"/><path class="cls-2" d="M419.44,36.88a1.35,1.35,0,0,0,.4,1,1.44,1.44,0,0,0,1,.36,11.14,11.14,0,0,0,2.26-.24l.39-.1-.1.91a8.46,8.46,0,0,1-2.64.45c-1.64,0-2.46-.78-2.46-2.35a7.5,7.5,0,0,1,1-3.83,3.79,3.79,0,0,1,1.32-1.35,3.47,3.47,0,0,1,1.86-.51c1.53,0,2.29.63,2.29,1.89a2,2,0,0,1-1,1.92,7.31,7.31,0,0,1-3.29.55h-.79A4.81,4.81,0,0,0,419.44,36.88Zm1.18-2.18a5.67,5.67,0,0,0,2.27-.33,1.23,1.23,0,0,0,.69-1.22c0-.61-.39-.92-1.19-.92-1.26,0-2.14.82-2.62,2.47Z" transform="translate(-21.95 -13.18)"/><path class="cls-2" d="M426.17,31.41h1.16l-.14,6.72h.29l3.17-6.57H432l.07,6.57h.29l3-6.72h1.18l-3.51,7.73H431L431,33.06l-2.89,6.08h-2Z" transform="translate(-21.95 -13.18)"/><path class="cls-2" d="M447.61,30c1.25,0,1.88.54,1.88,1.61a2.34,2.34,0,0,1-.63,1.67,5.06,5.06,0,0,1-1.95,1.19l1.45,2a6.89,6.89,0,0,0,.77-1.76h.94a8.2,8.2,0,0,1-1.16,2.44l1.22,1.55-.68.6-1.16-1.48a3.82,3.82,0,0,1-3,1.52,2.79,2.79,0,0,1-1.89-.53,2.18,2.18,0,0,1-.58-1.69,3,3,0,0,1,.63-1.94,4.65,4.65,0,0,1,2.06-1.32,2.85,2.85,0,0,1-.35-1.3,2.52,2.52,0,0,1,.67-1.87A2.45,2.45,0,0,1,447.61,30Zm-2.19,8.46a2.66,2.66,0,0,0,1.29-.35,3.16,3.16,0,0,0,1.07-1l-1.91-2.67a3.37,3.37,0,0,0-1.59,1.06,2.6,2.6,0,0,0-.46,1.59C443.82,38,444.35,38.41,445.42,38.41Zm1.09-7.14a2,2,0,0,0-.36,1.23,2.22,2.22,0,0,0,.38,1.31,4,4,0,0,0,1.51-1,1.83,1.83,0,0,0,.44-1.24c0-.55-.3-.83-.91-.83A1.26,1.26,0,0,0,446.51,31.27Z" transform="translate(-21.95 -13.18)"/><path class="cls-2" d="M457.9,39.14l2.46-10.7h6l-.25,1h-4.77l-.85,3.68h3.92l-.24,1h-3.92l-.89,3.87h4.78l-.24,1Z" transform="translate(-21.95 -13.18)"/><path class="cls-2" d="M466.56,31.41h1.15l.12,6.74h.48l3.36-6.74h1.19l-3.93,7.73h-2.17Z" transform="translate(-21.95 -13.18)"/><path class="cls-2" d="M474.59,39.29c-1.32,0-2-.76-2-2.3a8.4,8.4,0,0,1,.41-2.56,5.6,5.6,0,0,1,1.34-2.23,2.92,2.92,0,0,1,2.15-1,16,16,0,0,1,2.58.28l.59.11-1.18,5a18.78,18.78,0,0,0-.37,2.05l-.06.4-1.13,0c.14-.88.24-1.43.28-1.65a3.83,3.83,0,0,1-.46.53,6.31,6.31,0,0,1-.67.64,3.43,3.43,0,0,1-.71.43A1.86,1.86,0,0,1,474.59,39.29Zm3.74-6.82a10,10,0,0,0-1.86-.21,1.84,1.84,0,0,0-1.43.79,5,5,0,0,0-1,1.86,7.44,7.44,0,0,0-.29,1.89,1.92,1.92,0,0,0,.26,1.16,1,1,0,0,0,.79.33,1.91,1.91,0,0,0,1.15-.5,7.32,7.32,0,0,0,1.05-1l.4-.51Z" transform="translate(-21.95 -13.18)"/><path class="cls-2" d="M480.05,39.14,482.61,28h1.15l-2.55,11.1Z" transform="translate(-21.95 -13.18)"/><path class="cls-2" d="M485.63,39.29a1.71,1.71,0,0,1-1.36-.52,2,2,0,0,1-.47-1.36,9.26,9.26,0,0,1,.31-2.08l.92-3.92h1.14l-.9,3.85a8.41,8.41,0,0,0-.29,1.85c0,.78.35,1.16,1,1.16a1.87,1.87,0,0,0,1.06-.43,5.12,5.12,0,0,0,1-.87l.37-.43,1.19-5.13h1.15L489,39.14h-1.13l.28-1.35a5.18,5.18,0,0,1-.36.42,4.61,4.61,0,0,1-.89.67A2.37,2.37,0,0,1,485.63,39.29Z" transform="translate(-21.95 -13.18)"/><path class="cls-2" d="M493.35,39.29c-1.32,0-2-.76-2-2.3a8.11,8.11,0,0,1,.41-2.56,5.7,5.7,0,0,1,1.33-2.23,2.94,2.94,0,0,1,2.15-1,16.05,16.05,0,0,1,2.59.28l.58.11-1.17,5a16.65,16.65,0,0,0-.37,2.05l-.06.4-1.13,0q.21-1.32.27-1.65a3.51,3.51,0,0,1-.45.53,7.45,7.45,0,0,1-.67.64,3.52,3.52,0,0,1-.72.43A1.82,1.82,0,0,1,493.35,39.29Zm3.74-6.82a10,10,0,0,0-1.87-.21,1.85,1.85,0,0,0-1.43.79,5.11,5.11,0,0,0-.94,1.86,7.44,7.44,0,0,0-.29,1.89,1.85,1.85,0,0,0,.26,1.16,1,1,0,0,0,.79.33,1.93,1.93,0,0,0,1.15-.5,6.73,6.73,0,0,0,1-1l.41-.51Z" transform="translate(-21.95 -13.18)"/><path class="cls-2" d="M500.67,37.58c0,.47.26.71.78.71l1.19-.09-.08.88a6,6,0,0,1-1.53.21,1.65,1.65,0,0,1-1.14-.38,1.36,1.36,0,0,1-.42-1,6.81,6.81,0,0,1,.25-1.64l.89-3.82h-1l.27-1h1l.54-2.29h1.16L502,31.41h2.17l-.25,1h-2.16l-.9,3.88A5.74,5.74,0,0,0,500.67,37.58Z" transform="translate(-21.95 -13.18)"/><path class="cls-2" d="M503.66,39.14l1.78-7.73h1.16l-1.8,7.73Zm2.13-9.34.34-1.39h1.16L507,29.8Z" transform="translate(-21.95 -13.18)"/><path class="cls-2" d="M511.13,31.25a2.34,2.34,0,0,1,2.67,2.63,7.62,7.62,0,0,1-.45,2.66,4.68,4.68,0,0,1-1.37,2,3.18,3.18,0,0,1-2.1.76c-1.77,0-2.65-.84-2.65-2.53a6.72,6.72,0,0,1,1.11-3.87A3.26,3.26,0,0,1,511.13,31.25Zm-1.25,7a2.28,2.28,0,0,0,2-1.31,6,6,0,0,0,.76-3.11,1.69,1.69,0,0,0-.38-1.18,1.41,1.41,0,0,0-1.13-.43,2.24,2.24,0,0,0-2,1.35,6.32,6.32,0,0,0-.77,3.16A1.33,1.33,0,0,0,509.88,38.29Z" transform="translate(-21.95 -13.18)"/><path class="cls-2" d="M519.6,31.25a1.72,1.72,0,0,1,1.36.53,2,2,0,0,1,.47,1.36,9.1,9.1,0,0,1-.31,2.07l-.91,3.93h-1.15l.9-3.85a8.48,8.48,0,0,0,.29-1.86c0-.77-.35-1.16-1-1.16a1.9,1.9,0,0,0-1.06.44,5.24,5.24,0,0,0-1,.86l-.35.43-1.19,5.14h-1.15l1.78-7.73h1.13l-.28,1.34.37-.42a5,5,0,0,1,.88-.66A2.3,2.3,0,0,1,519.6,31.25Z" transform="translate(-21.95 -13.18)"/><path class="cls-2" d="M533.49,29.6a16.56,16.56,0,0,0-2.77-.28,2.61,2.61,0,0,0-1.79.58,2.14,2.14,0,0,0-.65,1.68,1,1,0,0,0,.38.89,6.92,6.92,0,0,0,1.57.71,4.27,4.27,0,0,1,1.67.92,2.08,2.08,0,0,1,.48,1.5,3.56,3.56,0,0,1-1,2.71,3.89,3.89,0,0,1-2.8,1,11.63,11.63,0,0,1-2.66-.31l-.45-.09.2-.93a19.61,19.61,0,0,0,3,.28,2.55,2.55,0,0,0,1.86-.66,2.47,2.47,0,0,0,.67-1.87,1.18,1.18,0,0,0-.34-.94,4.75,4.75,0,0,0-1.5-.7,5,5,0,0,1-1.7-.9,1.94,1.94,0,0,1-.54-1.5,3.17,3.17,0,0,1,1-2.48,3.93,3.93,0,0,1,2.73-.91,9.38,9.38,0,0,1,2.48.33l.4.11Z" transform="translate(-21.95 -13.18)"/><path class="cls-2" d="M534.32,31.41h1.15l.12,6.74h.47l3.37-6.74h1.19L535,42.56H533.8l1.78-3.42h-1.05Z" transform="translate(-21.95 -13.18)"/><path class="cls-2" d="M546.32,32.47a17.45,17.45,0,0,0-2.35-.21,1.91,1.91,0,0,0-1.37.44,1.37,1.37,0,0,0-.48,1.06.61.61,0,0,0,.28.55,4.58,4.58,0,0,0,1.29.45,5,5,0,0,1,1.49.6,1.26,1.26,0,0,1,.48,1.12,2.51,2.51,0,0,1-.94,2.09,3.9,3.9,0,0,1-2.43.72A8.3,8.3,0,0,1,540.2,39l-.36-.07.22-.9a13.74,13.74,0,0,0,2.36.25,2.55,2.55,0,0,0,1.49-.4,1.37,1.37,0,0,0,.56-1.18.65.65,0,0,0-.3-.61,5.27,5.27,0,0,0-1.27-.42,4.27,4.27,0,0,1-1.46-.58A1.2,1.2,0,0,1,541,34a2.57,2.57,0,0,1,.86-2,3.15,3.15,0,0,1,2.18-.78,9.15,9.15,0,0,1,2.2.25l.36.08Z" transform="translate(-21.95 -13.18)"/><path class="cls-2" d="M548.64,37.58c0,.47.26.71.78.71l1.19-.09-.08.88a6.11,6.11,0,0,1-1.53.21,1.66,1.66,0,0,1-1.15-.38,1.39,1.39,0,0,1-.41-1,7.26,7.26,0,0,1,.24-1.64l.9-3.82h-1l.26-1h1l.54-2.29h1.16L550,31.41h2.17l-.25,1h-2.16l-.9,3.88A5.74,5.74,0,0,0,548.64,37.58Z" transform="translate(-21.95 -13.18)"/><path class="cls-2" d="M553.17,36.88a1.32,1.32,0,0,0,.41,1,1.4,1.4,0,0,0,1,.36,11,11,0,0,0,2.25-.24l.39-.1-.09.91a8.52,8.52,0,0,1-2.65.45c-1.64,0-2.46-.78-2.46-2.35a7.5,7.5,0,0,1,1-3.83,3.88,3.88,0,0,1,1.32-1.35,3.47,3.47,0,0,1,1.86-.51c1.53,0,2.29.63,2.29,1.89a2,2,0,0,1-1,1.92,7.35,7.35,0,0,1-3.3.55h-.79A4.81,4.81,0,0,0,553.17,36.88Zm1.18-2.18a5.67,5.67,0,0,0,2.27-.33,1.22,1.22,0,0,0,.7-1.22c0-.61-.4-.92-1.19-.92-1.27,0-2.15.82-2.63,2.47Z" transform="translate(-21.95 -13.18)"/><path class="cls-2" d="M564.52,33.43c0-.77-.35-1.16-1-1.16a1.87,1.87,0,0,0-1,.44,5.24,5.24,0,0,0-1,.86l-.35.43-1.19,5.14h-1.15l1.78-7.73h1.13l-.28,1.34a4.35,4.35,0,0,1,.84-.82,3,3,0,0,1,1.68-.68,1.5,1.5,0,0,1,1.25.48,2,2,0,0,1,.44.9l.39-.39a5.45,5.45,0,0,1,.94-.61,2.62,2.62,0,0,1,1.25-.38,1.68,1.68,0,0,1,1.35.53,1.88,1.88,0,0,1,.46,1.3,10.49,10.49,0,0,1-.31,2.16l-.9,3.9h-1.16l.9-3.85a8.51,8.51,0,0,0,.29-1.84c0-.78-.34-1.18-1-1.18a1.8,1.8,0,0,0-1,.35,4.32,4.32,0,0,0-.86.7l-.33.34a8.94,8.94,0,0,1-.26,1.58l-.9,3.9h-1.16l.9-3.85A7.91,7.91,0,0,0,564.52,33.43Z" transform="translate(-21.95 -13.18)"/><path class="cls-2" d="M22,22.39h1.38L34.68,36.3V22.39h1.2V41.24h-.49L23.16,26.31V40.94H22Z" transform="translate(-21.95 -13.18)"/><path class="cls-2" d="M50.35,27.56h-.82c-.35-2-1-3.22-2-3.78A4.91,4.91,0,0,0,44.7,23a3.66,3.66,0,0,0-2.23.8,2.58,2.58,0,0,0-1,2.08A2.39,2.39,0,0,0,42,27.45a15.43,15.43,0,0,0,4,2.74c1.47.78,2.41,1.31,2.82,1.6a6.5,6.5,0,0,1,2.2,2.3,4.63,4.63,0,0,1,.51,2.12A4.69,4.69,0,0,1,49.79,40a6.22,6.22,0,0,1-4,1.37,10.92,10.92,0,0,1-1.46-.1,5.73,5.73,0,0,1-1.88-.57,5.28,5.28,0,0,1-2-1.89,6.65,6.65,0,0,1-1-3.88h.82a6.13,6.13,0,0,0,.51,2.78,4.51,4.51,0,0,0,2,1.93,5.63,5.63,0,0,0,2.71.66A4.22,4.22,0,0,0,48,39.53a2.65,2.65,0,0,0,1.16-2.27,3.36,3.36,0,0,0-1.55-2.68,26.43,26.43,0,0,0-3.12-1.91,23.61,23.61,0,0,1-3.17-2,4.79,4.79,0,0,1-2.05-3.86,4.46,4.46,0,0,1,1.65-3.56A5.65,5.65,0,0,1,44.69,22a6.37,6.37,0,0,1,3.54,1,4.93,4.93,0,0,1,1.47,1.84A8.17,8.17,0,0,1,50.35,27.56Z" transform="translate(-21.95 -13.18)"/><path class="cls-2" d="M54.82,22.54,59,22.39a10.58,10.58,0,0,1,3.93.5,5.21,5.21,0,0,1,2.46,1.8,4.55,4.55,0,0,1,.94,2.83,4.68,4.68,0,0,1-1.66,3.84,6.2,6.2,0,0,1-4.07,1.28,14.72,14.72,0,0,1-3.12-.39v8.69H54.82Zm2.62,8.93a12.31,12.31,0,0,0,2.24.28,3.15,3.15,0,0,0,2.56-1.22,4.19,4.19,0,0,0,.93-2.74A4,4,0,0,0,61.28,24a4.07,4.07,0,0,0-2.05-.5,8.14,8.14,0,0,0-1.79.25Z" transform="translate(-21.95 -13.18)"/><path class="cls-2" d="M71.85,40.94H69.23V22.39h2.62Z" transform="translate(-21.95 -13.18)"/><path class="cls-2" d="M87.79,40.94l-6.28-8.65H79.57v8.65H77V22.52L81,22.39a13.33,13.33,0,0,1,4.37.42,4.93,4.93,0,0,1,2.42,1.64,4.27,4.27,0,0,1,.93,2.72c0,2.49-1.52,4.07-4.58,4.75l6.55,9Zm-8.22-9.52h.76a6.75,6.75,0,0,0,3.66-.9,3.52,3.52,0,0,0,1.69-3.18,3.8,3.8,0,0,0-1.09-2.84,3.91,3.91,0,0,0-2.87-1.07,11.46,11.46,0,0,0-2.15.26Z" transform="translate(-21.95 -13.18)"/><path class="cls-2" d="M106,40.94H94.3V22.39H106v1H97v7.33h7.53v1H97v6.12c0,.64,0,1,0,1a1.06,1.06,0,0,0,.48.87,2.24,2.24,0,0,0,1,.16H106Z" transform="translate(-21.95 -13.18)"/><path class="cls-2" d="M119.66,27.56h-.82c-.35-2-1-3.22-2-3.78A4.91,4.91,0,0,0,114,23a3.66,3.66,0,0,0-2.23.8,2.58,2.58,0,0,0-1,2.08,2.39,2.39,0,0,0,.59,1.55,15.61,15.61,0,0,0,4,2.74c1.47.78,2.41,1.31,2.82,1.6a6.41,6.41,0,0,1,2.2,2.3,4.63,4.63,0,0,1,.51,2.12A4.69,4.69,0,0,1,119.1,40a6.22,6.22,0,0,1-4,1.37,10.92,10.92,0,0,1-1.46-.1,5.73,5.73,0,0,1-1.88-.57,5.28,5.28,0,0,1-2-1.89,6.65,6.65,0,0,1-1-3.88h.82a6.13,6.13,0,0,0,.51,2.78,4.51,4.51,0,0,0,2,1.93,5.63,5.63,0,0,0,2.71.66,4.22,4.22,0,0,0,2.53-.77,2.65,2.65,0,0,0,1.16-2.27,3.36,3.36,0,0,0-1.55-2.68,26.43,26.43,0,0,0-3.12-1.91,23.61,23.61,0,0,1-3.17-2,4.79,4.79,0,0,1-2.05-3.86,4.46,4.46,0,0,1,1.65-3.56A5.65,5.65,0,0,1,114,22a6.37,6.37,0,0,1,3.54,1A4.83,4.83,0,0,1,119,24.78,8.17,8.17,0,0,1,119.66,27.56Z" transform="translate(-21.95 -13.18)"/></svg>