<svg id="Layer_1" data-name="Layer 1" xmlns="http://www.w3.org/2000/svg" viewBox="0 0 111.78 36.03"><defs><style>.cls-1{fill:#2d5a96;}.cls-2{fill:#6ccbdd;opacity:0.75;isolation:isolate;}</style></defs><title>nspiresLogoSmall</title><path class="cls-1" d="M18.05,17.21h1.38l11.3,13.91V17.21h1.2V36.06h-.49L19.21,21.13V35.76H18.05Z" transform="translate(-18.05 -7.99)"/><path class="cls-1" d="M46.4,22.38h-.82c-.35-2-1-3.22-2-3.78a5,5,0,0,0-2.83-.78,3.62,3.62,0,0,0-2.23.8,2.6,2.6,0,0,0-1,2.08,2.35,2.35,0,0,0,.53,1.57,15.45,15.45,0,0,0,4,2.74c1.47.78,2.41,1.31,2.82,1.6a6.47,6.47,0,0,1,2.2,2.3A4.6,4.6,0,0,1,47.58,31a4.7,4.7,0,0,1-1.74,3.79,6.24,6.24,0,0,1-4,1.37,10.14,10.14,0,0,1-1.46-.1,5.69,5.69,0,0,1-1.88-.57,5.26,5.26,0,0,1-2-1.89,6.7,6.7,0,0,1-1-3.88h.82a6.17,6.17,0,0,0,.51,2.78,4.55,4.55,0,0,0,2,1.93,5.68,5.68,0,0,0,2.71.66,4.16,4.16,0,0,0,2.51-.77,2.64,2.64,0,0,0,1.16-2.27,3.37,3.37,0,0,0-1.55-2.68,25.53,25.53,0,0,0-3.12-1.91,23.17,23.17,0,0,1-3.17-2,4.8,4.8,0,0,1-2-3.86A4.46,4.46,0,0,1,37,18.07a5.65,5.65,0,0,1,3.77-1.25,6.44,6.44,0,0,1,3.54,1,5,5,0,0,1,1.47,1.84A8.2,8.2,0,0,1,46.4,22.38Z" transform="translate(-18.05 -7.99)"/><path class="cls-1" d="M50.87,17.36l4.18-.15a10.69,10.69,0,0,1,3.93.5,5.21,5.21,0,0,1,2.46,1.8,4.59,4.59,0,0,1,.94,2.83,4.68,4.68,0,0,1-1.66,3.84,6.2,6.2,0,0,1-4.07,1.28,14.88,14.88,0,0,1-3.12-.39v8.69H50.87Zm2.62,8.93a12.15,12.15,0,0,0,2.24.28,3.15,3.15,0,0,0,2.56-1.22,4.14,4.14,0,0,0,.93-2.74,4,4,0,0,0-1.89-3.79,4.07,4.07,0,0,0-2-.5,8.39,8.39,0,0,0-1.79.25Z" transform="translate(-18.05 -7.99)"/><path class="cls-1" d="M67.9,35.76H65.28V17.21H67.9Z" transform="translate(-18.05 -7.99)"/><path class="cls-1" d="M83.84,35.76l-6.28-8.65H75.62v8.65H73.05V17.34l4-.13a13.4,13.4,0,0,1,4.37.42,4.93,4.93,0,0,1,2.42,1.64A4.25,4.25,0,0,1,84.77,22c0,2.49-1.52,4.07-4.58,4.75l6.55,9Zm-8.22-9.52h.76a6.8,6.8,0,0,0,3.66-.9,3.53,3.53,0,0,0,1.69-3.18,3.79,3.79,0,0,0-1.09-2.84,3.91,3.91,0,0,0-2.87-1.07,12,12,0,0,0-2.15.26Z" transform="translate(-18.05 -7.99)"/><path class="cls-1" d="M102.05,35.76H90.35V17.21h11.7v1h-9v7.33h7.53v1H93.05v7.12a1.08,1.08,0,0,0,.48.87,2.29,2.29,0,0,0,1,.16h7.52Z" transform="translate(-18.05 -7.99)"/><path class="cls-1" d="M115.71,22.38h-.82c-.35-2-1-3.22-2-3.78a4.92,4.92,0,0,0-2.84-.78,3.62,3.62,0,0,0-2.23.8,2.6,2.6,0,0,0-1,2.08,2.39,2.39,0,0,0,.59,1.55,15.45,15.45,0,0,0,4,2.74c1.47.78,2.41,1.31,2.82,1.6a6.38,6.38,0,0,1,2.2,2.3,4.6,4.6,0,0,1,.51,2.12,4.68,4.68,0,0,1-1.79,3.81,6.24,6.24,0,0,1-4,1.37,10.14,10.14,0,0,1-1.46-.1,5.69,5.69,0,0,1-1.88-.57,5.26,5.26,0,0,1-2-1.89,6.7,6.7,0,0,1-1-3.88h.82a6.17,6.17,0,0,0,.51,2.78,4.55,4.55,0,0,0,2,1.93,5.68,5.68,0,0,0,2.71.66,4.24,4.24,0,0,0,2.53-.77,2.64,2.64,0,0,0,1.16-2.27A3.37,3.37,0,0,0,113,29.4a25.53,25.53,0,0,0-3.12-1.91,23.17,23.17,0,0,1-3.17-2,4.8,4.8,0,0,1-2-3.86,4.46,4.46,0,0,1,1.65-3.56,5.67,5.67,0,0,1,3.75-1.25,6.44,6.44,0,0,1,3.54,1,4.94,4.94,0,0,1,1.46,1.78A8.08,8.08,0,0,1,115.71,22.38Z" transform="translate(-18.05 -7.99)"/><path class="cls-2" d="M105.31,15.4c5.82-2.8,13.36-5.61,18.17-5.11,5.09.52,1.83,6.27-1.37,10.21,0,0-9,11.76-27.2,23.52.39-.25.93-.44,1.34-.65,1.31-.67,2.61-1.41,3.88-2.19a110.47,110.47,0,0,0,13.66-10A96,96,0,0,0,124.34,21c2.39-2.75,4.81-6,5.38-8.76a3.24,3.24,0,0,0-1.06-3.33c-2.75-2-9.32-.32-14.43,1.88A47.52,47.52,0,0,0,105.31,15.4Z" transform="translate(-18.05 -7.99)"/></svg>